<svg width="306" height="275" viewBox="0 0 306 275" fill="none" xmlns="http://www.w3.org/2000/svg">
<path d="M284.016 142.844C283.809 144.018 284.605 145.139 285.793 145.349C286.981 145.558 288.112 144.777 288.319 143.603C288.526 142.429 287.731 141.308 286.543 141.098C285.354 140.889 284.223 141.67 284.016 142.844Z" fill="url(#paint0_linear_1473_1262)"/>
<path d="M278.232 164.728C278.434 163.581 279.535 162.819 280.697 163.024C281.859 163.229 282.633 164.321 282.431 165.469C282.229 166.617 281.127 167.378 279.966 167.173C278.804 166.968 278.029 165.876 278.232 164.728Z" fill="url(#paint1_linear_1473_1262)"/>
<path d="M268.717 185.279C268.519 186.396 269.277 187.464 270.408 187.663C271.539 187.863 272.616 187.118 272.813 186.001C273.01 184.883 272.252 183.816 271.121 183.616C269.99 183.417 268.914 184.161 268.717 185.279Z" fill="url(#paint2_linear_1473_1262)"/>
<path d="M255.751 203.865C255.943 202.777 256.994 202.05 258.095 202.245C259.197 202.439 259.936 203.481 259.744 204.569C259.552 205.657 258.501 206.383 257.4 206.189C256.297 206.003 255.558 204.962 255.751 203.865Z" fill="url(#paint3_linear_1473_1262)"/>
<path d="M239.744 219.958C239.932 218.895 240.952 218.19 242.028 218.38C243.104 218.569 243.821 219.581 243.634 220.644C243.447 221.706 242.426 222.412 241.35 222.222C240.275 222.032 239.557 221.021 239.744 219.958Z" fill="url(#paint4_linear_1473_1262)"/>
<path d="M221.175 233.085C220.992 234.122 221.695 235.114 222.745 235.299C223.796 235.484 224.795 234.793 224.978 233.756C225.161 232.718 224.458 231.727 223.408 231.542C222.357 231.356 221.358 232.047 221.175 233.085Z" fill="url(#paint5_linear_1473_1262)"/>
<path d="M200.606 242.86C200.785 241.848 201.755 241.178 202.779 241.358C203.803 241.539 204.485 242.501 204.307 243.512C204.128 244.524 203.158 245.194 202.134 245.014C201.11 244.833 200.428 243.871 200.606 242.86Z" fill="url(#paint6_linear_1473_1262)"/>
<path d="M179.801 251.015C180.754 251.344 181.793 250.848 182.122 249.907C182.451 248.967 181.946 247.937 180.993 247.608C180.04 247.279 179 247.774 178.671 248.715C178.342 249.656 178.848 250.686 179.801 251.015Z" fill="url(#paint7_linear_1473_1262)"/>
<path d="M155.897 251.252C156.065 250.3 156.984 249.665 157.948 249.835C158.912 250.004 159.558 250.916 159.391 251.868C159.223 252.821 158.303 253.456 157.339 253.286C156.376 253.116 155.729 252.205 155.897 251.252Z" fill="url(#paint8_linear_1473_1262)"/>
<path d="M133.101 249.609C133.265 248.683 134.154 248.068 135.092 248.233C136.03 248.399 136.655 249.28 136.492 250.207C136.328 251.134 135.439 251.748 134.501 251.583C133.563 251.417 132.938 250.536 133.101 249.609Z" fill="url(#paint9_linear_1473_1262)"/>
<path d="M110.895 244.152C111.054 243.25 111.921 242.658 112.825 242.818C113.737 242.978 114.339 243.839 114.182 244.731C114.023 245.632 113.156 246.225 112.252 246.065C111.348 245.906 110.737 245.044 110.895 244.152Z" fill="url(#paint10_linear_1473_1262)"/>
<path d="M89.9636 235C90.1165 234.133 90.9551 233.554 91.8329 233.709C92.7106 233.863 93.3004 234.695 93.1475 235.562C92.9946 236.429 92.156 237.009 91.2782 236.854C90.4005 236.699 89.8107 235.868 89.9636 235Z" fill="url(#paint11_linear_1473_1262)"/>
<path d="M70.9254 222.404C71.0738 221.563 71.8821 221.004 72.7341 221.154C73.586 221.304 74.1545 222.106 74.0061 222.947C73.8577 223.789 73.0494 224.348 72.1975 224.197C71.3541 224.049 70.777 223.246 70.9254 222.404Z" fill="url(#paint12_linear_1473_1262)"/>
<path d="M54.3584 206.764C54.5023 205.948 55.289 205.412 56.1065 205.556C56.9326 205.702 57.4783 206.481 57.3359 207.289C57.192 208.105 56.4054 208.641 55.5879 208.497C54.7703 208.353 54.2145 207.58 54.3584 206.764Z" fill="url(#paint13_linear_1473_1262)"/>
<path d="M40.7274 188.557C40.8668 187.766 41.6246 187.243 42.4249 187.384C43.2252 187.525 43.7582 188.276 43.6188 189.067C43.4794 189.857 42.7216 190.381 41.9213 190.24C41.1225 190.091 40.5895 189.339 40.7274 188.557Z" fill="url(#paint14_linear_1473_1262)"/>
<path d="M30.4363 168.318C30.5698 167.562 31.2988 167.05 32.0732 167.187C32.8477 167.323 33.3594 168.045 33.2245 168.81C33.0896 169.575 32.3621 170.078 31.5876 169.941C30.8131 169.805 30.3029 169.075 30.4363 168.318Z" fill="url(#paint15_linear_1473_1262)"/>
<path d="M23.8084 146.636C23.9373 145.905 24.6446 145.416 25.3846 145.546C26.1247 145.677 26.6221 146.378 26.4932 147.109C26.3643 147.84 25.657 148.329 24.917 148.199C24.1769 148.068 23.6795 147.367 23.8084 146.636Z" fill="url(#paint16_linear_1473_1262)"/>
<path d="M21.0622 124.161C21.1866 123.455 21.8636 122.987 22.5779 123.113C23.2921 123.239 23.7682 123.91 23.6438 124.616C23.5194 125.322 22.8424 125.79 22.1282 125.664C21.4139 125.538 20.9378 124.866 21.0622 124.161Z" fill="url(#paint17_linear_1473_1262)"/>
<path d="M22.2716 101.557C22.3916 100.877 23.0382 100.43 23.7267 100.551C24.4151 100.672 24.8699 101.314 24.75 101.994C24.6301 102.674 23.9834 103.121 23.295 102.999C22.6065 102.878 22.1517 102.237 22.2716 101.557Z" fill="url(#paint18_linear_1473_1262)"/>
<path d="M27.358 79.4975C27.472 78.8514 28.0984 78.4185 28.7524 78.5338C29.4064 78.6491 29.847 79.2702 29.7331 79.9163C29.6192 80.5624 28.9927 80.9954 28.3387 80.8801C27.6847 80.7647 27.2441 80.1436 27.358 79.4975Z" fill="url(#paint19_linear_1473_1262)"/>
<path d="M36.2022 58.6336C36.3116 58.0131 36.9078 57.6011 37.536 57.7118C38.1642 57.8226 38.5834 58.4136 38.474 59.0342C38.3646 59.6547 37.7684 60.0668 37.1403 59.956C36.5121 59.8452 36.0928 59.2542 36.2022 58.6336Z" fill="url(#paint20_linear_1473_1262)"/>
<path d="M48.5737 39.595C48.6787 39 49.2531 38.6104 49.8469 38.7151C50.4492 38.8213 50.8457 39.3908 50.7423 39.9774C50.6373 40.5725 50.0629 40.9621 49.4691 40.8574C48.8653 40.7597 48.4688 40.1901 48.5737 39.595Z" fill="url(#paint21_linear_1473_1262)"/>
<path d="M64.0805 22.9577C64.181 22.3882 64.7251 22.0195 65.293 22.1197C65.861 22.2198 66.2447 22.7608 66.1458 23.3219C66.0469 23.883 65.5012 24.2601 64.9333 24.16C64.3653 24.0599 63.9801 23.5273 64.0805 22.9577Z" fill="url(#paint22_linear_1473_1262)"/>
<path d="M82.2488 9.18139C82.1536 9.72133 82.5195 10.2372 83.066 10.3335C83.6126 10.4299 84.1328 10.0703 84.228 9.53038C84.3232 8.99044 83.9573 8.47461 83.4108 8.37824C82.8642 8.28187 82.344 8.64145 82.2488 9.18139Z" fill="url(#paint23_linear_1473_1262)"/>
<path d="M273.939 141.068C273.732 142.242 274.527 143.363 275.715 143.572C276.904 143.782 278.034 143 278.241 141.826C278.448 140.653 277.653 139.531 276.465 139.322C275.277 139.112 274.146 139.894 273.939 141.068Z" fill="url(#paint24_linear_1473_1262)"/>
<path d="M268.107 162.671C268.306 161.54 269.397 160.786 270.542 160.988C271.686 161.19 272.454 162.272 272.254 163.402C272.055 164.533 270.964 165.287 269.819 165.086C268.675 164.884 267.907 163.802 268.107 162.671Z" fill="url(#paint25_linear_1473_1262)"/>
<path d="M258.361 182.815C258.169 183.899 258.904 184.935 260.002 185.129C261.1 185.323 262.145 184.6 262.336 183.516C262.528 182.431 261.793 181.395 260.695 181.201C259.597 181.008 258.552 181.73 258.361 182.815Z" fill="url(#paint26_linear_1473_1262)"/>
<path d="M245.005 200.797C245.188 199.759 246.189 199.06 247.248 199.246C248.298 199.431 249.01 200.425 248.825 201.47C248.643 202.507 247.641 203.207 246.582 203.021C245.525 202.826 244.822 201.834 245.005 200.797Z" fill="url(#paint27_linear_1473_1262)"/>
<path d="M228.533 216.01C228.708 215.016 229.668 214.352 230.675 214.53C231.682 214.707 232.357 215.659 232.182 216.654C232.006 217.648 231.046 218.312 230.04 218.134C229.033 217.957 228.356 217.014 228.533 216.01Z" fill="url(#paint28_linear_1473_1262)"/>
<path d="M209.513 227.968C209.681 227.016 210.6 226.38 211.564 226.55C212.528 226.72 213.175 227.632 213.007 228.584C212.839 229.536 211.919 230.172 210.956 230.002C209.992 229.832 209.345 228.92 209.513 227.968Z" fill="url(#paint29_linear_1473_1262)"/>
<path d="M188.584 236.261C188.744 235.351 189.622 234.752 190.534 234.913C191.455 235.076 192.064 235.946 191.906 236.847C191.747 237.748 190.868 238.356 189.955 238.195C189.043 238.034 188.423 237.171 188.584 236.261Z" fill="url(#paint30_linear_1473_1262)"/>
<path d="M166.467 240.575C166.315 241.439 166.9 242.265 167.775 242.419C168.649 242.573 169.482 241.998 169.634 241.134C169.786 240.27 169.201 239.444 168.326 239.29C167.452 239.136 166.619 239.711 166.467 240.575Z" fill="url(#paint31_linear_1473_1262)"/>
<path d="M143.899 240.749C144.043 239.933 144.831 239.388 145.657 239.534C146.483 239.679 147.037 240.461 146.893 241.277C146.75 242.093 145.961 242.638 145.135 242.492C144.309 242.347 143.755 241.565 143.899 240.749Z" fill="url(#paint32_linear_1473_1262)"/>
<path d="M121.671 236.832C121.807 236.058 122.555 235.541 123.338 235.679C124.121 235.817 124.647 236.559 124.51 237.332C124.374 238.106 123.626 238.623 122.843 238.485C122.06 238.347 121.534 237.605 121.671 236.832Z" fill="url(#paint33_linear_1473_1262)"/>
<path d="M100.533 228.948C100.662 228.217 101.368 227.736 102.099 227.865C102.839 227.996 103.328 228.696 103.201 229.418C103.072 230.149 102.366 230.63 101.635 230.501C100.903 230.372 100.404 229.679 100.533 228.948Z" fill="url(#paint34_linear_1473_1262)"/>
<path d="M81.2157 217.329C81.3371 216.641 81.9939 216.187 82.6909 216.31C83.3879 216.433 83.8498 217.084 83.7284 217.772C83.607 218.461 82.9502 218.915 82.2532 218.792C81.5648 218.671 81.0943 218.018 81.2157 217.329Z" fill="url(#paint35_linear_1473_1262)"/>
<path d="M64.393 202.389C64.5054 201.751 65.1218 201.325 65.7672 201.439C66.4126 201.553 66.8461 202.164 66.7336 202.802C66.6212 203.439 66.0048 203.865 65.3595 203.752C64.7141 203.638 64.2806 203.027 64.393 202.389Z" fill="url(#paint36_linear_1473_1262)"/>
<path d="M50.6097 184.645C50.7146 184.049 51.2906 183.651 51.893 183.757C52.4953 183.864 52.9004 184.435 52.7955 185.03C52.6905 185.625 52.1146 186.023 51.5122 185.917C50.9113 185.802 50.5048 185.24 50.6097 184.645Z" fill="url(#paint37_linear_1473_1262)"/>
<path d="M40.3369 164.707C40.4343 164.154 40.9683 163.793 41.519 163.89C42.0698 163.987 42.4464 164.518 42.3505 165.062C42.2531 165.615 41.719 165.976 41.1683 165.879C40.6175 165.782 40.2394 165.26 40.3369 164.707Z" fill="url(#paint38_linear_1473_1262)"/>
<path d="M33.9354 143.244C34.0254 142.734 34.5104 142.398 35.0267 142.489C35.543 142.58 35.8841 143.061 35.7942 143.571C35.7042 144.082 35.2192 144.417 34.7029 144.326C34.1866 144.235 33.8455 143.754 33.9354 143.244Z" fill="url(#paint39_linear_1473_1262)"/>
<path d="M31.6585 120.979C31.5766 121.443 31.8915 121.887 32.362 121.97C32.8325 122.053 33.2804 121.744 33.3623 121.279C33.4443 120.814 33.1293 120.37 32.6588 120.287C32.1883 120.204 31.7405 120.514 31.6585 120.979Z" fill="url(#paint40_linear_1473_1262)"/>
<path d="M33.5766 98.6838C33.5029 99.1017 33.786 99.5009 34.209 99.5755C34.632 99.65 35.0346 99.3717 35.1083 98.9539C35.182 98.536 34.8988 98.1368 34.4758 98.0622C34.0529 97.9876 33.6502 98.2659 33.5766 98.6838Z" fill="url(#paint41_linear_1473_1262)"/>
<path d="M262.322 139.02C262.115 140.194 262.911 141.315 264.099 141.525C265.287 141.734 266.418 140.952 266.625 139.779C266.832 138.605 266.036 137.483 264.848 137.274C263.66 137.064 262.529 137.846 262.322 139.02Z" fill="url(#paint42_linear_1473_1262)"/>
<path d="M256.723 159.755C256.912 158.683 257.941 157.98 259.017 158.169C260.101 158.36 260.817 159.381 260.63 160.443C260.443 161.506 259.412 162.218 258.336 162.029C257.259 161.848 256.534 160.826 256.723 159.755Z" fill="url(#paint43_linear_1473_1262)"/>
<path d="M247.136 178.953C247.306 177.992 248.235 177.35 249.208 177.521C250.18 177.692 250.834 178.614 250.664 179.575C250.495 180.535 249.565 181.178 248.593 181.006C247.621 180.835 246.967 179.913 247.136 178.953Z" fill="url(#paint44_linear_1473_1262)"/>
<path d="M233.934 195.856C233.784 196.711 234.363 197.527 235.228 197.68C236.093 197.832 236.916 197.263 237.067 196.409C237.217 195.554 236.638 194.738 235.773 194.585C234.908 194.433 234.085 195.002 233.934 195.856Z" fill="url(#paint45_linear_1473_1262)"/>
<path d="M217.642 209.846C217.774 209.098 218.502 208.595 219.259 208.729C220.016 208.862 220.528 209.584 220.396 210.332C220.264 211.08 219.536 211.583 218.779 211.449C218.022 211.316 217.51 210.594 217.642 209.846Z" fill="url(#paint46_linear_1473_1262)"/>
<path d="M198.916 220.395C199.03 219.749 199.646 219.323 200.3 219.439C200.954 219.554 201.388 220.165 201.274 220.811C201.16 221.457 200.543 221.883 199.889 221.768C199.235 221.653 198.802 221.042 198.916 220.395Z" fill="url(#paint47_linear_1473_1262)"/>
<path d="M178.465 227.088C178.559 226.552 179.076 226.187 179.627 226.284C180.169 226.38 180.54 226.893 180.444 227.437C180.349 227.972 179.833 228.337 179.282 228.24C178.731 228.143 178.37 227.623 178.465 227.088Z" fill="url(#paint48_linear_1473_1262)"/>
<path d="M157.073 229.646C157.15 229.212 157.564 228.926 158.003 229.003C158.442 229.08 158.733 229.491 158.657 229.925C158.58 230.358 158.166 230.645 157.727 230.567C157.288 230.49 156.997 230.079 157.073 229.646Z" fill="url(#paint49_linear_1473_1262)"/>
<path d="M135.584 227.976C135.526 228.3 135.746 228.609 136.074 228.667C136.402 228.725 136.714 228.509 136.771 228.185C136.828 227.861 136.609 227.552 136.281 227.494C135.953 227.436 135.641 227.652 135.584 227.976Z" fill="url(#paint50_linear_1473_1262)"/>
<defs>
<linearGradient id="paint0_linear_1473_1262" x1="288.319" y1="143.603" x2="284.016" y2="142.844" gradientUnits="userSpaceOnUse">
<stop stop-color="#033E97"/>
<stop offset="0.9999" stop-color="#0E2845" stop-opacity="0"/>
<stop offset="1" stop-color="#183A60" stop-opacity="0"/>
</linearGradient>
<linearGradient id="paint1_linear_1473_1262" x1="282.431" y1="165.469" x2="278.232" y2="164.728" gradientUnits="userSpaceOnUse">
<stop stop-color="#033E97"/>
<stop offset="0.9999" stop-color="#0E2845" stop-opacity="0"/>
<stop offset="1" stop-color="#183A60" stop-opacity="0"/>
</linearGradient>
<linearGradient id="paint2_linear_1473_1262" x1="272.813" y1="186.001" x2="268.717" y2="185.279" gradientUnits="userSpaceOnUse">
<stop stop-color="#033E97"/>
<stop offset="0.9999" stop-color="#0E2845" stop-opacity="0"/>
<stop offset="1" stop-color="#183A60" stop-opacity="0"/>
</linearGradient>
<linearGradient id="paint3_linear_1473_1262" x1="259.744" y1="204.569" x2="255.751" y2="203.865" gradientUnits="userSpaceOnUse">
<stop stop-color="#033E97"/>
<stop offset="0.9999" stop-color="#0E2845" stop-opacity="0"/>
<stop offset="1" stop-color="#183A60" stop-opacity="0"/>
</linearGradient>
<linearGradient id="paint4_linear_1473_1262" x1="243.634" y1="220.644" x2="239.744" y2="219.958" gradientUnits="userSpaceOnUse">
<stop stop-color="#033E97"/>
<stop offset="0.9999" stop-color="#0E2845" stop-opacity="0"/>
<stop offset="1" stop-color="#183A60" stop-opacity="0"/>
</linearGradient>
<linearGradient id="paint5_linear_1473_1262" x1="224.978" y1="233.756" x2="221.175" y2="233.085" gradientUnits="userSpaceOnUse">
<stop stop-color="#033E97"/>
<stop offset="0.9999" stop-color="#0E2845" stop-opacity="0"/>
<stop offset="1" stop-color="#183A60" stop-opacity="0"/>
</linearGradient>
<linearGradient id="paint6_linear_1473_1262" x1="204.307" y1="243.512" x2="200.606" y2="242.86" gradientUnits="userSpaceOnUse">
<stop stop-color="#033E97"/>
<stop offset="0.9999" stop-color="#0E2845" stop-opacity="0"/>
<stop offset="1" stop-color="#183A60" stop-opacity="0"/>
</linearGradient>
<linearGradient id="paint7_linear_1473_1262" x1="180.993" y1="247.608" x2="179.814" y2="251.019" gradientUnits="userSpaceOnUse">
<stop stop-color="#033E97"/>
<stop offset="0.9999" stop-color="#0E2845" stop-opacity="0"/>
<stop offset="1" stop-color="#183A60" stop-opacity="0"/>
</linearGradient>
<linearGradient id="paint8_linear_1473_1262" x1="159.391" y1="251.868" x2="155.897" y2="251.252" gradientUnits="userSpaceOnUse">
<stop stop-color="#033E97"/>
<stop offset="0.9999" stop-color="#0E2845" stop-opacity="0"/>
<stop offset="1" stop-color="#183A60" stop-opacity="0"/>
</linearGradient>
<linearGradient id="paint9_linear_1473_1262" x1="136.492" y1="250.207" x2="133.101" y2="249.609" gradientUnits="userSpaceOnUse">
<stop stop-color="#033E97"/>
<stop offset="0.9999" stop-color="#0E2845" stop-opacity="0"/>
<stop offset="1" stop-color="#183A60" stop-opacity="0"/>
</linearGradient>
<linearGradient id="paint10_linear_1473_1262" x1="114.182" y1="244.731" x2="110.895" y2="244.152" gradientUnits="userSpaceOnUse">
<stop stop-color="#033E97"/>
<stop offset="0.9999" stop-color="#0E2845" stop-opacity="0"/>
<stop offset="1" stop-color="#183A60" stop-opacity="0"/>
</linearGradient>
<linearGradient id="paint11_linear_1473_1262" x1="93.1475" y1="235.562" x2="89.9636" y2="235.001" gradientUnits="userSpaceOnUse">
<stop stop-color="#033E97"/>
<stop offset="0.9999" stop-color="#0E2845" stop-opacity="0"/>
<stop offset="1" stop-color="#183A60" stop-opacity="0"/>
</linearGradient>
<linearGradient id="paint12_linear_1473_1262" x1="74.0061" y1="222.947" x2="70.9254" y2="222.404" gradientUnits="userSpaceOnUse">
<stop stop-color="#033E97"/>
<stop offset="0.9999" stop-color="#0E2845" stop-opacity="0"/>
<stop offset="1" stop-color="#183A60" stop-opacity="0"/>
</linearGradient>
<linearGradient id="paint13_linear_1473_1262" x1="57.3359" y1="207.289" x2="54.3584" y2="206.764" gradientUnits="userSpaceOnUse">
<stop stop-color="#033E97"/>
<stop offset="0.9999" stop-color="#0E2845" stop-opacity="0"/>
<stop offset="1" stop-color="#183A60" stop-opacity="0"/>
</linearGradient>
<linearGradient id="paint14_linear_1473_1262" x1="43.6188" y1="189.067" x2="40.7274" y2="188.557" gradientUnits="userSpaceOnUse">
<stop stop-color="#033E97"/>
<stop offset="0.9999" stop-color="#0E2845" stop-opacity="0"/>
<stop offset="1" stop-color="#183A60" stop-opacity="0"/>
</linearGradient>
<linearGradient id="paint15_linear_1473_1262" x1="33.2245" y1="168.81" x2="30.4363" y2="168.318" gradientUnits="userSpaceOnUse">
<stop stop-color="#033E97"/>
<stop offset="0.9999" stop-color="#0E2845" stop-opacity="0"/>
<stop offset="1" stop-color="#183A60" stop-opacity="0"/>
</linearGradient>
<linearGradient id="paint16_linear_1473_1262" x1="26.4932" y1="147.109" x2="23.8084" y2="146.636" gradientUnits="userSpaceOnUse">
<stop stop-color="#033E97"/>
<stop offset="0.9999" stop-color="#0E2845" stop-opacity="0"/>
<stop offset="1" stop-color="#183A60" stop-opacity="0"/>
</linearGradient>
<linearGradient id="paint17_linear_1473_1262" x1="23.6438" y1="124.616" x2="21.0622" y2="124.161" gradientUnits="userSpaceOnUse">
<stop stop-color="#033E97"/>
<stop offset="0.9999" stop-color="#0E2845" stop-opacity="0"/>
<stop offset="1" stop-color="#183A60" stop-opacity="0"/>
</linearGradient>
<linearGradient id="paint18_linear_1473_1262" x1="24.75" y1="101.994" x2="22.2716" y2="101.557" gradientUnits="userSpaceOnUse">
<stop stop-color="#033E97"/>
<stop offset="0.9999" stop-color="#0E2845" stop-opacity="0"/>
<stop offset="1" stop-color="#183A60" stop-opacity="0"/>
</linearGradient>
<linearGradient id="paint19_linear_1473_1262" x1="29.7331" y1="79.9163" x2="27.358" y2="79.4975" gradientUnits="userSpaceOnUse">
<stop stop-color="#033E97"/>
<stop offset="0.9999" stop-color="#0E2845" stop-opacity="0"/>
<stop offset="1" stop-color="#183A60" stop-opacity="0"/>
</linearGradient>
<linearGradient id="paint20_linear_1473_1262" x1="38.474" y1="59.0342" x2="36.2022" y2="58.6336" gradientUnits="userSpaceOnUse">
<stop stop-color="#033E97"/>
<stop offset="0.9999" stop-color="#0E2845" stop-opacity="0"/>
<stop offset="1" stop-color="#183A60" stop-opacity="0"/>
</linearGradient>
<linearGradient id="paint21_linear_1473_1262" x1="50.7423" y1="39.9775" x2="48.5737" y2="39.5951" gradientUnits="userSpaceOnUse">
<stop stop-color="#033E97"/>
<stop offset="0.9999" stop-color="#0E2845" stop-opacity="0"/>
<stop offset="1" stop-color="#183A60" stop-opacity="0"/>
</linearGradient>
<linearGradient id="paint22_linear_1473_1262" x1="66.1458" y1="23.3219" x2="64.0805" y2="22.9578" gradientUnits="userSpaceOnUse">
<stop stop-color="#033E97"/>
<stop offset="0.9999" stop-color="#0E2845" stop-opacity="0"/>
<stop offset="1" stop-color="#183A60" stop-opacity="0"/>
</linearGradient>
<linearGradient id="paint23_linear_1473_1262" x1="84.228" y1="9.53038" x2="82.2488" y2="9.18139" gradientUnits="userSpaceOnUse">
<stop stop-color="#033E97"/>
<stop offset="0.9999" stop-color="#0E2845" stop-opacity="0"/>
<stop offset="1" stop-color="#183A60" stop-opacity="0"/>
</linearGradient>
<linearGradient id="paint24_linear_1473_1262" x1="278.241" y1="141.826" x2="273.939" y2="141.068" gradientUnits="userSpaceOnUse">
<stop stop-color="#033E97"/>
<stop offset="0.9999" stop-color="#0E2845" stop-opacity="0"/>
<stop offset="1" stop-color="#183A60" stop-opacity="0"/>
</linearGradient>
<linearGradient id="paint25_linear_1473_1262" x1="272.254" y1="163.402" x2="268.107" y2="162.671" gradientUnits="userSpaceOnUse">
<stop stop-color="#033E97"/>
<stop offset="0.9999" stop-color="#0E2845" stop-opacity="0"/>
<stop offset="1" stop-color="#183A60" stop-opacity="0"/>
</linearGradient>
<linearGradient id="paint26_linear_1473_1262" x1="262.336" y1="183.516" x2="258.361" y2="182.815" gradientUnits="userSpaceOnUse">
<stop stop-color="#033E97"/>
<stop offset="0.9999" stop-color="#0E2845" stop-opacity="0"/>
<stop offset="1" stop-color="#183A60" stop-opacity="0"/>
</linearGradient>
<linearGradient id="paint27_linear_1473_1262" x1="248.825" y1="201.47" x2="245.005" y2="200.797" gradientUnits="userSpaceOnUse">
<stop stop-color="#033E97"/>
<stop offset="0.9999" stop-color="#0E2845" stop-opacity="0"/>
<stop offset="1" stop-color="#183A60" stop-opacity="0"/>
</linearGradient>
<linearGradient id="paint28_linear_1473_1262" x1="232.182" y1="216.654" x2="228.533" y2="216.01" gradientUnits="userSpaceOnUse">
<stop stop-color="#033E97"/>
<stop offset="0.9999" stop-color="#0E2845" stop-opacity="0"/>
<stop offset="1" stop-color="#183A60" stop-opacity="0"/>
</linearGradient>
<linearGradient id="paint29_linear_1473_1262" x1="213.007" y1="228.584" x2="209.513" y2="227.968" gradientUnits="userSpaceOnUse">
<stop stop-color="#033E97"/>
<stop offset="0.9999" stop-color="#0E2845" stop-opacity="0"/>
<stop offset="1" stop-color="#183A60" stop-opacity="0"/>
</linearGradient>
<linearGradient id="paint30_linear_1473_1262" x1="191.906" y1="236.847" x2="188.584" y2="236.261" gradientUnits="userSpaceOnUse">
<stop stop-color="#033E97"/>
<stop offset="0.9999" stop-color="#0E2845" stop-opacity="0"/>
<stop offset="1" stop-color="#183A60" stop-opacity="0"/>
</linearGradient>
<linearGradient id="paint31_linear_1473_1262" x1="169.634" y1="241.134" x2="166.467" y2="240.575" gradientUnits="userSpaceOnUse">
<stop stop-color="#033E97"/>
<stop offset="0.9999" stop-color="#0E2845" stop-opacity="0"/>
<stop offset="1" stop-color="#183A60" stop-opacity="0"/>
</linearGradient>
<linearGradient id="paint32_linear_1473_1262" x1="146.893" y1="241.277" x2="143.899" y2="240.749" gradientUnits="userSpaceOnUse">
<stop stop-color="#033E97"/>
<stop offset="0.9999" stop-color="#0E2845" stop-opacity="0"/>
<stop offset="1" stop-color="#183A60" stop-opacity="0"/>
</linearGradient>
<linearGradient id="paint33_linear_1473_1262" x1="124.51" y1="237.332" x2="121.671" y2="236.832" gradientUnits="userSpaceOnUse">
<stop stop-color="#033E97"/>
<stop offset="0.9999" stop-color="#0E2845" stop-opacity="0"/>
<stop offset="1" stop-color="#183A60" stop-opacity="0"/>
</linearGradient>
<linearGradient id="paint34_linear_1473_1262" x1="103.201" y1="229.418" x2="100.533" y2="228.948" gradientUnits="userSpaceOnUse">
<stop stop-color="#033E97"/>
<stop offset="0.9999" stop-color="#0E2845" stop-opacity="0"/>
<stop offset="1" stop-color="#183A60" stop-opacity="0"/>
</linearGradient>
<linearGradient id="paint35_linear_1473_1262" x1="83.7284" y1="217.772" x2="81.2157" y2="217.329" gradientUnits="userSpaceOnUse">
<stop stop-color="#033E97"/>
<stop offset="0.9999" stop-color="#0E2845" stop-opacity="0"/>
<stop offset="1" stop-color="#183A60" stop-opacity="0"/>
</linearGradient>
<linearGradient id="paint36_linear_1473_1262" x1="66.7336" y1="202.802" x2="64.393" y2="202.389" gradientUnits="userSpaceOnUse">
<stop stop-color="#033E97"/>
<stop offset="0.9999" stop-color="#0E2845" stop-opacity="0"/>
<stop offset="1" stop-color="#183A60" stop-opacity="0"/>
</linearGradient>
<linearGradient id="paint37_linear_1473_1262" x1="52.7955" y1="185.03" x2="50.6097" y2="184.645" gradientUnits="userSpaceOnUse">
<stop stop-color="#033E97"/>
<stop offset="0.9999" stop-color="#0E2845" stop-opacity="0"/>
<stop offset="1" stop-color="#183A60" stop-opacity="0"/>
</linearGradient>
<linearGradient id="paint38_linear_1473_1262" x1="42.3505" y1="165.062" x2="40.3369" y2="164.707" gradientUnits="userSpaceOnUse">
<stop stop-color="#033E97"/>
<stop offset="0.9999" stop-color="#0E2845" stop-opacity="0"/>
<stop offset="1" stop-color="#183A60" stop-opacity="0"/>
</linearGradient>
<linearGradient id="paint39_linear_1473_1262" x1="35.7942" y1="143.571" x2="33.9354" y2="143.244" gradientUnits="userSpaceOnUse">
<stop stop-color="#033E97"/>
<stop offset="0.9999" stop-color="#0E2845" stop-opacity="0"/>
<stop offset="1" stop-color="#183A60" stop-opacity="0"/>
</linearGradient>
<linearGradient id="paint40_linear_1473_1262" x1="33.3623" y1="121.279" x2="31.6585" y2="120.979" gradientUnits="userSpaceOnUse">
<stop stop-color="#033E97"/>
<stop offset="0.9999" stop-color="#0E2845" stop-opacity="0"/>
<stop offset="1" stop-color="#183A60" stop-opacity="0"/>
</linearGradient>
<linearGradient id="paint41_linear_1473_1262" x1="35.1083" y1="98.9539" x2="33.5766" y2="98.6838" gradientUnits="userSpaceOnUse">
<stop stop-color="#033E97"/>
<stop offset="0.9999" stop-color="#0E2845" stop-opacity="0"/>
<stop offset="1" stop-color="#183A60" stop-opacity="0"/>
</linearGradient>
<linearGradient id="paint42_linear_1473_1262" x1="266.625" y1="139.779" x2="262.322" y2="139.02" gradientUnits="userSpaceOnUse">
<stop stop-color="#033E97"/>
<stop offset="0.9999" stop-color="#0E2845" stop-opacity="0"/>
<stop offset="1" stop-color="#183A60" stop-opacity="0"/>
</linearGradient>
<linearGradient id="paint43_linear_1473_1262" x1="260.63" y1="160.443" x2="256.723" y2="159.755" gradientUnits="userSpaceOnUse">
<stop stop-color="#033E97"/>
<stop offset="0.9999" stop-color="#0E2845" stop-opacity="0"/>
<stop offset="1" stop-color="#183A60" stop-opacity="0"/>
</linearGradient>
<linearGradient id="paint44_linear_1473_1262" x1="250.664" y1="179.575" x2="247.136" y2="178.953" gradientUnits="userSpaceOnUse">
<stop stop-color="#033E97"/>
<stop offset="0.9999" stop-color="#0E2845" stop-opacity="0"/>
<stop offset="1" stop-color="#183A60" stop-opacity="0"/>
</linearGradient>
<linearGradient id="paint45_linear_1473_1262" x1="237.067" y1="196.409" x2="233.934" y2="195.856" gradientUnits="userSpaceOnUse">
<stop stop-color="#033E97"/>
<stop offset="0.9999" stop-color="#0E2845" stop-opacity="0"/>
<stop offset="1" stop-color="#183A60" stop-opacity="0"/>
</linearGradient>
<linearGradient id="paint46_linear_1473_1262" x1="220.396" y1="210.332" x2="217.642" y2="209.846" gradientUnits="userSpaceOnUse">
<stop stop-color="#033E97"/>
<stop offset="0.9999" stop-color="#0E2845" stop-opacity="0"/>
<stop offset="1" stop-color="#183A60" stop-opacity="0"/>
</linearGradient>
<linearGradient id="paint47_linear_1473_1262" x1="201.274" y1="220.811" x2="198.916" y2="220.395" gradientUnits="userSpaceOnUse">
<stop stop-color="#033E97"/>
<stop offset="0.9999" stop-color="#0E2845" stop-opacity="0"/>
<stop offset="1" stop-color="#183A60" stop-opacity="0"/>
</linearGradient>
<linearGradient id="paint48_linear_1473_1262" x1="180.444" y1="227.437" x2="178.465" y2="227.088" gradientUnits="userSpaceOnUse">
<stop stop-color="#033E97"/>
<stop offset="0.9999" stop-color="#0E2845" stop-opacity="0"/>
<stop offset="1" stop-color="#183A60" stop-opacity="0"/>
</linearGradient>
<linearGradient id="paint49_linear_1473_1262" x1="158.657" y1="229.925" x2="157.073" y2="229.646" gradientUnits="userSpaceOnUse">
<stop stop-color="#033E97"/>
<stop offset="0.9999" stop-color="#0E2845" stop-opacity="0"/>
<stop offset="1" stop-color="#183A60" stop-opacity="0"/>
</linearGradient>
<linearGradient id="paint50_linear_1473_1262" x1="136.771" y1="228.185" x2="135.584" y2="227.976" gradientUnits="userSpaceOnUse">
<stop stop-color="#033E97"/>
<stop offset="0.9999" stop-color="#0E2845" stop-opacity="0"/>
<stop offset="1" stop-color="#183A60" stop-opacity="0"/>
</linearGradient>
</defs>
</svg>
