<?xml version="1.0" encoding="utf-8"?>
<!-- Svg Vector Icons : http://www.onlinewebfonts.com/icon -->
<!DOCTYPE svg PUBLIC "-//W3C//DTD SVG 1.1//EN" "http://www.w3.org/Graphics/SVG/1.1/DTD/svg11.dtd">
<svg version="1.1" xmlns="http://www.w3.org/2000/svg" xmlns:xlink="http://www.w3.org/1999/xlink" x="0px" y="0px" viewBox="0 0 1000 1000" enable-background="new 0 0 1000 1000" xml:space="preserve">
<metadata> Svg Vector Icons : http://www.onlinewebfonts.com/icon </metadata>
<g><path d="M500,255c-135.2,0-245,109.8-245,245c0,135.2,109.8,245,245,245s245-109.8,245-245C745,364.8,635.2,255,500,255z M500,10C229.5,10,10,229.5,10,500c0,270.5,219.5,490,490,490c270.5,0,490-219.5,490-490C990,229.5,770.5,10,500,10z M500,892c-216.6,0-392-175.4-392-392c0-216.6,175.4-392,392-392s392,175.4,392,392C892,716.6,716.6,892,500,892z"/></g>
</svg>